<svg viewBox="0 0 800 800" xmlns="http://www.w3.org/2000/svg"><path d="M418.851586519716,667.9313725710093 L418.8426863594506,760.4553822812404 M418.851586519716,667.9313725710093 L362.28425190077,700.5560524233399 M418.8426863594506,760.4553822812404 L362.30206409428285,793.095499086539 M362.30206409428285,793.095499086539 L362.28425190077,700.5560524233399 M410.897570478127,699.7405586949045 L410.85480242749225,699.3581245947234 M410.85480242749225,699.3581245947234 L410.72894082765583,699.0472876768911 M410.72894082765583,699.0472876768911 L410.52729975876645,698.8261049545836 M410.52729975876645,698.8261049545836 L410.2615953322496,698.7074416038588 M410.2615953322496,698.7074416038588 L409.94726961589987,698.6981876128712 M409.94726961589987,698.6981876128712 L409.6025897809877,698.7988843462492 M409.6025897809877,698.7988843462492 L409.24758760392393,699.0036819649138 M409.24758760392393,699.0036819649138 L408.9028954831672,699.3006784248573 M408.9028954831672,699.3006784248573 L408.5885463955502,699.6726115981475 M408.5885463955502,699.6726115981475 L408.32280973194634,700.0978630564717 M408.32280973194634,700.0978630564717 L408.12112934819135,700.5517248830262 M408.12112934819135,700.5517248830262 L407.9952268013763,701.0078101101121 M407.9952268013763,701.0078101101121 L407.95241924436385,701.4396197377848 M407.95241924436385,701.4396197377848 L407.9951935771545,701.8220553856848 M407.9951935771545,701.8220553856848 L408.1210638150702,702.1328879238097 M408.1210638150702,702.1328879238097 L408.32271389918634,702.3540613422701 M408.32271389918634,702.3540613422701 L408.5884236631119,702.4727137442858 M408.5884236631119,702.4727137442858 L408.90275093986463,702.4819570016687 M408.90275093986463,702.4819570016687 L409.2474282006697,702.3812522087666 M409.2474282006697,702.3812522087666 L409.60242425880824,702.1764510510566 M409.60242425880824,702.1764510510566 L409.94710811761524,701.8794563833114 M409.94710811761524,701.8794563833114 L410.26144869297735,701.5075299228353 M410.26144869297735,701.5075299228353 L410.52717854404324,701.0822885600394 M410.52717854404324,701.0822885600394 L410.7288542522378,700.628438547295 M410.7288542522378,700.628438547295 L410.8547573210442,700.1723629978902 M410.8547573210442,700.1723629978902 L410.897570478127,699.7405586949045 M373.19190890754044,721.4929970539888 L373.1490445989591,721.1105279822763 M373.1490445989591,721.1105279822763 L373.02305322287026,720.7996806890698 M373.02305322287026,720.7996806890698 L372.82125639958986,720.5785127898532 M372.82125639958986,720.5785127898532 L372.5553814755791,720.4598873419305 M372.5553814755791,720.4598873419305 L372.2408793022035,720.4506927785508 M372.2408793022035,720.4506927785508 L371.8960273062646,720.5514670112827 M371.8960273062646,720.5514670112827 L371.5408672701675,720.7563556974285 M371.5408672701675,720.7563556974285 L371.19604076722493,721.0534515003574 M371.19604076722493,721.0534515003574 L370.8815885842916,721.4254865183129 M370.8815885842916,721.4254865183129 L370.6157861036593,721.8508364035686 M370.6157861036593,721.8508364035686 L370.4140821316465,722.3047868711215 M370.4140821316465,722.3047868711215 L370.2881974119741,722.7609470595015 M370.2881974119741,722.7609470595015 L370.24544806288395,723.1928136128593 M370.24544806288395,723.1928136128593 L370.2883209070288,723.5752829345968 M370.2883209070288,723.5752829345968 L370.4143209270753,723.8861258449731 M370.4143209270753,723.8861258449731 L370.6161245225852,724.1072857325059 M370.6161245225852,724.1072857325059 L370.88200478604995,724.22590022704 M370.88200478604995,724.22590022704 L371.19650851897615,724.2350840529341 M371.19650851897615,724.2350840529341 L371.5413579372532,724.1343017584849 M371.5413579372532,724.1343017584849 L371.8965118489822,723.9294095332903 M371.8965118489822,723.9294095332903 L372.2413300838911,723.6323155247472 M372.2413300838911,723.6323155247472 L372.5557737492382,723.2602872234825 M372.5557737492382,723.2602872234825 L372.82156941397506,722.8349474384338 M372.82156941397506,722.8349474384338 L373.02327095728486,722.3810074925301 M373.02327095728486,722.3810074925301 L373.14915620121815,721.9248569849592 M373.14915620121815,721.9248569849592 L373.19190890754044,721.4929970539888 M410.895148951348,743.2810792784662 L410.8523903984953,742.8988315858792 M410.8523903984953,742.8988315858792 L410.72655675988045,742.5881786410753 M410.72655675988045,742.5881786410753 L410.5249604905133,742.3671744021278 M410.5249604905133,742.3671744021278 L410.259315099501,742.2486634404056 M410.259315099501,742.2486634404056 L409.9450592232037,742.2395371181622 M409.9450592232037,742.2395371181622 L409.60045597453745,742.3403217454587 M409.60045597453745,742.3403217454587 L409.2455326787609,742.5451649685615 M409.2455326787609,742.5451649685615 L408.9009171497094,742.8421620926399 M408.9009171497094,742.8421620926399 L408.58663791278,743.2140483570124 M408.58663791278,743.2140483570124 L408.32096029875623,743.6392156940883 M408.32096029875623,743.6392156940883 L408.11932473199397,744.0929508452887 M408.11932473199397,744.0929508452887 L407.99345016434654,744.5488844372658 M407.99345016434654,744.5488844372658 L407.95065212292116,744.9805186463077 M407.95065212292116,744.9805186463077 L407.9934169548888,745.3627678833091 M407.9934169548888,745.3627678833091 L408.119259227779,745.6734164479793 M408.119259227779,745.6734164479793 L408.3208645085819,745.8944113856901 M408.3208645085819,745.8944113856901 L408.5865152347101,746.0129101065749 M408.5865152347101,746.0129101065749 L408.9007726706379,746.0220269991389 M408.9007726706379,746.0220269991389 L409.24537334640206,745.9212330213763 M409.24537334640206,745.9212330213763 L409.6002905259745,745.7163862639425 M409.6002905259745,745.7163862639425 L409.944897796684,745.4193922313497 M409.944897796684,745.4193922313497 L410.25916852518685,745.0475113812008 M410.25916852518685,745.0475113812008 L410.5248393296539,744.6223554329367 M410.5248393296539,744.6223554329367 L410.7264702226495,744.1686320895537 M410.7264702226495,744.1686320895537 L410.852345312091,743.7127081686685 M410.852345312091,743.7127081686685 L410.895148951348,743.2810792784662 M373.19786720244434,765.0383601986578 L373.15501243467514,764.6560775947376 M373.15501243467514,764.6560775947376 L373.0290490769855,764.345414331114 M373.0290490769855,764.345414331114 L372.82729712269963,764.1244249657319 M372.82729712269963,764.1244249657319 L372.56148130946906,764.005951946854 M372.56148130946906,764.005951946854 L372.247049055069,763.9968850807829 M372.247049055069,763.9968850807829 L371.90227372189037,764.0977472220108 M371.90227372189037,764.0977472220108 L371.5471926372388,764.3026815126264 M371.5471926372388,764.3026815126264 L371.2024427857257,764.5997779651731 M371.2024427857257,764.5997779651731 L370.8880604987996,764.9717660457017 M370.8880604987996,764.9717660457017 L370.6223170974978,765.3970317697127 M370.6223170974978,765.3970317697127 L370.4206579527106,765.8508555114709 M370.4206579527106,765.8508555114709 L370.2948012047811,766.3068640082071 M370.2948012047811,766.3068640082071 L370.25206134515736,766.7385550827412 M370.25206134515736,766.7385550827412 L370.2949246449456,767.1208379330924 M370.2949246449456,767.1208379330924 L370.42089664278507,767.43149681346 M370.42089664278507,767.43149681346 L370.622655366006,767.6524781700593 M370.622655366006,767.6524781700593 L370.8884765161467,767.7709389432797 M370.8884765161467,767.7709389432797 L371.2029103295751,767.7799963759386 M371.2029103295751,767.7799963759386 L371.5476830860496,767.6791248819104 M371.5476830860496,767.6791248819104 L371.9027580490578,767.4741870569624 M371.9027580490578,767.4741870569624 L372.24749963639874,767.1770936982332 M372.24749963639874,767.1770936982332 L372.56187340932075,766.8051110356596 M372.56187340932075,766.8051110356596 L372.8276099979605,766.3798567052802 M372.8276099979605,766.3798567052802 L373.0292667153392,765.9260434788862 M373.0292667153392,765.9260434788862 L373.15512398733085,765.4700446563663 M373.15512398733085,765.4700446563663 L373.19786720244434,765.0383601986578 M437.70631601817814,684.2491597004104 L437.7073637942089,678.8038483391756 M437.7073637942089,678.8038483391756 L418.851586519716,667.9313725710093 M418.8426863594506,760.4553822812404 L437.6895595173368,771.333003698523 M437.6895595173368,771.333003698523 L437.6906063623086,765.8925310681102 M437.6906063623086,765.8925310681102 L423.55466625114906,757.7343151436187 M423.56448314964496,676.0943489848664 L423.55466625114906,757.7343151436187 M437.70631601817814,684.2491597004104 L423.56448314964496,676.0943489848664 M437.71574809923,700.5560524233399 L437.7073637942089,678.8038483391756 M436.537384851065,701.2359646704797 L437.71574809923,700.5560524233399 M436.5368770947213,699.8761496248721 L436.76965519138935,700.0444878680687 M436.76965519138935,700.0444878680687 L436.93167423011073,700.238478602992 M436.93167423011073,700.238478602992 L437.01480809985986,700.4483947032709 M437.01480809985986,700.4483947032709 L437.01489067418123,700.6637103803075 M437.01489067418123,700.6637103803075 L436.9319133953246,700.8736279808853 M436.9319133953246,700.8736279808853 L436.77003966418334,701.0676223276594 M436.77003966418334,701.0676223276594 L436.537384851065,701.2359646704797 M420.0344030426536,690.3585024465696 L436.5368770947213,699.8761496248721 M417.6774144494002,690.3585024465696 L417.9691766499672,690.2242837335366 M417.9691766499672,690.2242837335366 L418.30540928631297,690.1308818848738 M418.30540928631297,690.1308818848738 L418.66925116393816,690.0829794560884 M418.66925116393816,690.0829794560884 L419.0424601289442,690.08298010436 M419.0424601289442,690.08298010436 L419.4063210321381,690.1308815607377 M419.4063210321381,690.1308815607377 L419.7425891079897,690.2242837335366 M419.7425891079897,690.2242837335366 L420.0344030426536,690.3585024465696 M401.17860893853947,699.8761496248721 L417.6774144494002,690.3585024465696 M401.17862531777627,701.2359646704797 L400.94590561773674,701.0676223276594 M400.94590561773674,701.0676223276594 L400.7839565501986,700.8736283050926 M400.7839565501986,700.8736283050926 L400.7009000454203,700.6637103803075 M400.7009000454203,700.6637103803075 L400.7008973790924,700.4483947032709 M400.7008973790924,700.4483947032709 L400.78395202349714,700.238478927195 M400.78395202349714,700.238478927195 L400.9458957272123,700.0444878680687 M400.9458957272123,700.0444878680687 L401.17860893853947,699.8761496248721 M417.68109977774037,710.7557283512803 L401.17862531777627,701.2359646704797 M420.03857974810575,710.7557283512803 L419.746759160977,710.8900034015278 M419.746759160977,710.8900034015278 L419.41045656032975,710.9834448896811 M419.41045656032975,710.9834448896811 L419.0465373214517,711.0313677865669 M419.0465373214517,711.0313677865669 L418.6732484484513,711.0313671380177 M418.6732484484513,711.0313671380177 L418.30931017598954,710.9834452139553 M418.30931017598954,710.9834452139553 L417.97297212068077,710.8900034015278 M417.97297212068077,710.8900034015278 L417.68109977774037,710.7557283512803 M418.8599708250479,711.4357823521352 L420.03857974810575,710.7557283512803 M381.14002917495213,711.4357823521352 L418.8599708250479,711.4357823521352 M362.28425190077,700.5560524233399 L381.14002917495213,711.4357823521352 M437.69793590571726,793.095499086539 L437.6895595173368,771.333003698523 M436.52012904885305,793.7757329370198 L437.69793590571726,793.095499086539 M436.52012904885305,793.7757329370198 L436.75267401408894,793.6073109674869 M436.75267401408894,793.6073109674869 L436.9144713305271,793.4132248601434 M436.9144713305271,793.4132248601434 L436.9974094586722,793.2032079667855 M436.9974094586722,793.2032079667855 L436.99732696179734,792.9877904431914 M436.99732696179734,792.9877904431914 L436.9142323914286,792.77777504998 M436.9142323914286,792.77777504998 L436.75228990436267,792.5836925546421 M436.75228990436267,792.5836925546421 L436.51962177199715,792.4152746847349 M436.51962177199715,792.4152746847349 L420.0249422866281,782.8931250602856 M420.0249422866281,782.8931250602856 L419.7332661667295,782.7588428470981 M419.7332661667295,782.7588428470981 L419.3971568937652,782.665396484737 M419.3971568937652,782.665396484737 L419.0334678189698,782.6174723656377 M419.0334678189698,782.6174723656377 L418.66043509225847,782.6174717170594 M418.66043509225847,782.6174717170594 L418.2967650253325,782.6653968090266 M418.2967650253325,782.6653968090266 L417.9606911581461,782.7588428470981 M417.9606911581461,782.7588428470981 L417.66906672349546,782.8931250602856 M417.66906672349546,782.8931250602856 L401.17805231522567,792.4152746847349 M401.17805231522567,792.4152746847349 L400.9454490069286,792.5836925546421 M400.9454490069286,792.5836925546421 L400.7835817839937,792.7777753743364 M400.7835817839937,792.7777753743364 L400.70056636335886,792.9877904431914 M400.70056636335886,792.9877904431914 L400.70056902769966,793.2032079667855 M400.70056902769966,793.2032079667855 L400.78358630615514,793.413225184504 M400.78358630615514,793.413225184504 L400.94545888811314,793.6073109674869 M400.94545888811314,793.6073109674869 L401.1780686789952,793.7757329370198 M401.1780686789952,793.7757329370198 L417.6727485716829,803.2999990650517 M417.6727485716829,803.2999990650517 L417.96448304469664,803.4343376154825 M417.96448304469664,803.4343376154825 L418.3006622310309,803.5278236174927 M418.3006622310309,803.5278236174927 L418.6644286020305,803.5757682042871 M418.6644286020305,803.5757682042871 L419.03754116127703,803.575768853143 M419.03754116127703,803.575768853143 L419.4012885164034,803.527823293065 M419.4012885164034,803.527823293065 L419.73743228182576,803.4343376154825 M419.73743228182576,803.4343376154825 L420.02911504790734,803.2999990650517 M418.8510627481412,803.9803746693093 L420.02911504790734,803.2999990650517 M381.1489372518588,803.9803746693093 L418.8510627481412,803.9803746693093 M381.1489372518588,803.9803746693093 L362.30206409428285,793.095499086539 M381.14055341252225,716.8820029807238 L381.14002917495213,711.4357823521352 M366.99872041317377,708.721751417507 L381.14055341252225,716.8820029807238 M367.01247323847247,790.3753384174386 L366.99872041317377,708.721751417507 M367.01247323847247,790.3753384174386 L381.148413480284,798.5389951927239 M381.1489372518588,803.9803746693093 L381.148413480284,798.5389951927239 M413.72527712693073,701.3716562279795 L413.68251495207613,700.9892195533123 M413.68251495207613,700.9892195533123 L413.55665888672496,700.6783818565816 M413.55665888672496,700.6783818565816 L413.35502268948494,700.4572001961797 M413.35502268948494,700.4572001961797 L413.0893221885127,700.3385396865897 M413.0893221885127,700.3385396865897 L412.77499922354485,700.3292901508084 M412.77499922354485,700.3292901508084 L412.43032080590086,700.4299926945937 M412.43032080590086,700.4299926945937 L412.0753186295933,700.6347971412133 M412.0753186295933,700.6347971412133 L411.7306250930373,700.9318010498356 M411.7306250930373,700.9318010498356 L411.41627325537775,701.3037418596102 M411.41627325537775,701.3037418596102 L411.1505326673616,701.7290006983769 M411.1505326673616,701.7290006983769 L410.94884741281646,702.1828692204414 M410.94884741281646,702.1828692204414 L410.82293933205256,702.6389600688765 M410.82293933205256,702.6389600688765 L410.7801258994423,703.0707739170874 M410.7801258994423,703.0707739170874 L410.82289435650165,703.4532121394107 M410.82289435650165,703.4532121394107 L410.94875906006723,703.7640454561999 M410.94875906006723,703.7640454561999 L411.1504042727248,703.9852178124029 M411.1504042727248,703.9852178124029 L411.4161101113083,704.1038673729329 M411.4161101113083,704.1038673729329 L411.730434636847,704.1131061748181 M411.730434636847,704.1131061748181 L412.07511048047877,704.0123955713445 M412.07511048047877,704.0123955713445 L412.430106537861,703.8075875856791 M412.430106537861,703.8075875856791 L412.7747918123726,703.5105854694193 M412.7747918123726,703.5105854694193 L413.0891351376094,703.1386513727493 M413.0891351376094,703.1386513727493 L413.35486891288497,702.7134026298618 M413.35486891288497,702.7134026298618 L413.55654949167894,702.2595459219594 M413.55654949167894,702.2595459219594 L413.6824580942989,701.8034647514401 M413.6824580942989,701.8034647514401 L413.72527712693073,701.3716562279795 M413.72527712693073,701.3716562279795 L410.897570478127,699.7405586949045 M376.01961550786234,723.1248198816872 L375.97675707474366,722.742348236013 M375.97675707474366,722.742348236013 L375.85077123220645,722.4315001655198 M375.85077123220645,722.4315001655198 L375.6489792790802,722.210333330815 M375.6489792790802,722.210333330815 L375.3831082786437,722.0917107274342 M375.3831082786437,722.0917107274342 L375.06860885431945,722.0825206232926 M375.06860885431945,722.0825206232926 L374.72375827309304,722.1833006708532 M374.72375827309304,722.1833006708532 L374.3685982351202,722.3881961895089 M374.3685982351202,722.3881961895089 L374.02377031382287,722.6852994455398 M374.02377031382287,722.6852994455398 L373.7093153785165,723.0573421040145 M373.7093153785165,723.0573421040145 L373.4435089715021,723.4826993731241 M373.4435089715021,723.4826993731241 L373.24180012720427,723.9366565387556 M373.24180012720427,723.9366565387556 L373.1159098726501,724.392822350103 M373.1159098726501,724.392822350103 L373.07315464764525,724.8246931245728 M373.07315464764525,724.8246931245728 L373.11602161637643,725.2071650201663 M373.11602161637643,725.2071650201663 L373.24201610300673,725.5180087075947 M373.24201610300673,725.5180087075947 L373.44381482855346,725.7391675303068 M373.44381482855346,725.7391675303068 L373.70969116864654,725.857779179948 M373.70969116864654,725.857779179948 L374.0241921526894,725.8669585463128 M374.0241921526894,725.8669585463128 L374.3690401563488,725.7661704368703 M374.3690401563488,725.7661704368703 L374.7241940699533,725.5612713791656 M374.7241940699533,725.5612713791656 L375.0690137231221,725.2641699176847 M375.0690137231221,725.2641699176847 L375.3834601406741,724.8921339761918 M375.3834601406741,724.8921339761918 L375.6492597315904,724.4667868076399 M375.6492597315904,724.4667868076399 L375.8509661469943,724.0128401639669 M375.8509661469943,724.0128401639669 L375.97685692567416,723.5566840336633 M375.97685692567416,723.5566840336633 L376.01961550786234,723.1248198816872 M376.01961550786234,723.1248198816872 L373.19190890754044,721.4929970539888 M413.7222272104298,744.9125400035177 L413.67947453074595,744.5302897409695 M413.67947453074595,744.5302897409695 L413.5536464241942,744.219636021508 M413.5536464241942,744.219636021508 L413.35205502427397,743.9986328482403 M413.35205502427397,743.9986328482403 L413.08641355709904,743.8801247306559 M413.08641355709904,743.8801247306559 L412.77216043092335,743.8710028657613 M412.77216043092335,743.8710028657613 L412.4275585988951,743.9717933045584 M412.4275585988951,743.9717933045584 L412.07263530387445,744.1766433556193 M412.07263530387445,744.1766433556193 L411.7280183596527,744.4736479272881 M411.7280183596527,744.4736479272881 L411.4137363739401,744.8455418260078 M411.4137363739401,744.8455418260078 L411.14805483721057,745.2707165405275 M411.14805483721057,745.2707165405275 L410.9464144018601,745.7244583834665 M410.9464144018601,745.7244583834665 L410.8205343026856,746.1803975925536 M410.8205343026856,746.1803975925536 L410.7777303882735,746.6120360176095 M410.7777303882735,746.6120360176095 L410.8204893471209,746.9942878245092 M410.8204893471209,746.9942878245092 L410.94632608808325,747.3049371636032 M410.94632608808325,747.3049371636032 L411.1479264996298,747.5259310352824 M411.1479264996298,747.5259310352824 L411.4135733021418,747.644426911668 M411.4135733021418,747.644426911668 L411.7278279880971,747.6535393466033 M411.7278279880971,747.6535393466033 L412.0724272473368,747.5527395571651 M412.0724272473368,747.5527395571651 L412.4273444261534,747.347885971773 M412.4273444261534,747.347885971773 L412.7719531119197,747.0508844917645 M412.7719531119197,747.0508844917645 L413.08622658905665,746.6789960075483 M413.08622658905665,746.6789960075483 L413.3519013160085,746.2538326822018 M413.3519013160085,746.2538326822018 L413.55353707740153,745.8001026474318 M413.55353707740153,745.8001026474318 L413.67941769823494,745.3441731096711 M413.67941769823494,745.3441731096711 L413.7222272104298,744.9125400035177 M413.7222272104298,744.9125400035177 L410.895148951348,743.2810792784662 M376.0249454130767,766.6705462185749 L375.98209651815904,766.2882610452194 M375.98209651815904,766.2882610452194 L375.8561386915996,765.9775970085519 M375.8561386915996,765.9775970085519 L375.65439160526626,765.7566087114569 M375.65439160526626,765.7566087114569 L375.38857971390405,765.6381385401244 M375.38857971390405,765.6381385401244 L375.0741502072966,765.6290761354337 M375.0741502072966,765.6290761354337 L374.72937628820216,765.7299440925833 M374.72937628820216,765.7299440925833 L374.37429520167615,765.9348852157107 M374.37429520167615,765.9348852157107 L374.0295439324389,766.2319891202699 M374.0295439324389,766.2319891202699 L373.7151588944008,766.6039848391785 M373.7151588944008,766.6039848391785 L373.4494115684247,767.0292579440427 M373.4494115684247,767.0292579440427 L373.24774755355537,767.483088380106 M373.24774755355537,767.483088380106 L373.12188527316647,767.9391024955682 M373.12188527316647,767.9391024955682 L373.07913954023945,768.370797786688 M373.07913954023945,768.370797786688 L373.12199696722496,768.753083206368 M373.12199696722496,768.753083206368 L373.24796343406973,769.0637428595454 M373.24796343406973,769.0637428595454 L373.44971728952885,769.2847231475488 M373.44971728952885,769.2847231475488 L373.7155345180224,769.4031810728624 M373.7155345180224,769.4031810728624 L374.02996558380744,769.4122340438607 M374.02996558380744,769.4122340438607 L374.37473692631113,769.3113567337357 M374.37473692631113,769.3113567337357 L374.7298118911937,769.106412076276 M374.7298118911937,769.106412076276 L375.0745548961451,768.8093112657092 M375.0745548961451,768.8093112657092 L375.3889314200299,768.4373209650357 M375.3889314200299,768.4373209650357 L375.6546719331227,768.0120592541648 M375.6546719331227,768.0120592541648 L375.85633352039275,767.5582393337744 M375.85633352039275,767.5582393337744 L375.9821963247085,767.1022348927629 M375.9821963247085,767.1022348927629 L376.0249454130767,766.6705462185749 M376.0249454130767,766.6705462185749 L373.19786720244434,765.0383601986578 M437.71469985720387,706.0019699626405 L437.71574809923,700.5560524233399 M437.71469985720387,706.0019699626405 L437.70631601817814,684.2491597004104 M437.69793590571726,793.095499086539 L437.69898321606325,787.6544218920019 M437.69898321606325,787.6544218920019 L437.6906063623086,765.8925310681102 M436.5211436448441,788.3346368498538 L437.69898321606325,787.6544218920019 M436.52063633980185,786.9742163828266 L436.7533109377797,787.1426295750525 M436.7533109377797,787.1426295750525 L436.91525792588163,787.3367066799133 M436.91525792588163,787.3367066799133 L436.9983548069501,787.5467162401486 M436.9983548069501,787.5467162401486 L436.9984373083776,787.7621277807538 M436.9984373083776,787.7621277807538 L436.91549687827217,787.9721388411448 M436.91549687827217,787.9721388411448 L436.7536950688486,788.1662195580022 M436.7536950688486,788.1662195580022 L436.5211436448441,788.3346368498538 M420.02549855433983,777.4523312551842 L436.52063633980185,786.9742163828266 M417.66955754794697,777.4523312551842 L417.9611900828735,777.3180527723224 M417.9611900828735,777.3180527723224 L418.29727328527144,777.2246093301638 M418.29727328527144,777.2246093301638 L418.66095345421735,777.1766855695487 M418.66095345421735,777.1766855695487 L419.0339965432795,777.1766862181089 M419.0339965432795,777.1766862181089 L419.39769572113534,777.2246090058834 M419.39769572113534,777.2246090058834 L419.73381433129373,777.3180527723224 M419.73381433129373,777.3180527723224 L420.02549855433983,777.4523312551842 M401.1780850432194,786.9742163828266 L417.66955754794697,777.4523312551842 M401.17810140789817,788.3346368498538 L400.9454851546454,788.1662195580022 M400.9454851546454,788.1662195580022 L400.7836080755356,787.9721391654964 M400.7836080755356,787.9721391654964 L400.70058849067493,787.7621277807538 M400.70058849067493,787.7621277807538 L400.7005858262175,787.5467162401486 M400.7005858262175,787.5467162401486 L400.7836035531073,787.3367070042605 M400.7836035531073,787.3367070042605 L400.94547527291184,787.1426295750524 M400.94547527291184,787.1426295750524 L401.1780850432194,786.9742163828266 M417.6732396007128,797.8586384810934 L401.17810140789817,788.3346368498538 M420.02967154747455,797.8586384810934 L419.7379806778763,797.9929733011991 M419.7379806778763,797.9929733011991 L419.4018275733586,798.0864563828686 M419.4018275733586,798.0864563828686 L419.03807011191805,798.1344006115949 M419.03807011191805,798.1344006115949 L418.66494718588496,798.134399962757 M418.66494718588496,798.134399962757 L418.30117070752993,798.0864567072872 M418.30117070752993,798.0864567072872 L417.9649821801166,797.9929733011991 M417.9649821801166,797.9929733011991 L417.6732396007128,797.8586384810934 M418.851586519716,798.5389951927239 L420.02967154747455,797.8586384810934 M381.148413480284,798.5389951927239 L418.851586519716,798.5389951927239 M367.01247323847247,790.3753384174386 L423.55466625114906,757.7343151436187 M366.99872041317377,708.721751417507 L423.56448314964496,676.0943489848664 M416.7884989306129,701.779439027048 L416.7114170943348,702.556692539513 M416.7114170943348,702.556692539513 L416.4847727951166,703.3776456908467 M416.4847727951166,703.3776456908467 L416.12174311813726,704.1945854229011 M416.12174311813726,704.1945854229011 L415.6434216195645,704.9600383809527 M415.6434216195645,704.9600383809527 L415.07760736217097,705.6295194134709 M415.07760736217097,705.6295194134709 L414.45717856720853,706.1641306113818 M414.45717856720853,706.1641306113818 L413.8181900705472,706.5327957273981 M413.8181900705472,706.5327957273981 L413.19777755553065,706.7140873302282 M413.19777755553065,706.7140873302282 L412.6319953627617,706.697474845023 M412.6319953627617,706.697474845023 L412.1537259458752,706.4839136849948 M412.1537259458752,706.4839136849948 L411.7907642773355,706.085814325606 M411.7907642773355,706.085814325606 L411.564208682611,705.526310085637 M411.564208682611,705.526310085637 L411.48722672940534,704.8379188462579 M411.48722672940534,704.8379188462579 L411.56429518525067,704.0606453332633 M411.56429518525067,704.0606453332633 L411.790935546869,703.2396621210507 M411.790935546869,703.2396621210507 L412.1539778572295,702.4226855623606 M412.1539778572295,702.4226855623606 L412.63232030601336,701.6572005408785 M412.63232030601336,701.6572005408785 L413.1981632675501,700.9876971093504 M413.1981632675501,700.9876971093504 L413.81861883172473,700.4530801038293 M413.81861883172473,700.4530801038293 L414.45762715371086,700.0844264543257 M414.45762715371086,700.0844264543257 L415.07804800832537,699.9031609652355 M415.07804800832537,699.9031609652355 L415.6438240210765,699.9198088768878 M415.6438240210765,699.9198088768878 L416.1220772671173,700.1334048646213 M416.1220772671173,700.1334048646213 L416.4850122419532,700.5315329184785 M416.4850122419532,700.5315329184785 L416.7115420953496,701.0910500537157 M416.7115420953496,701.0910500537157 L416.7884989306129,701.779439027048 M416.78476831499177,745.3204136005659 L416.7077036194666,746.0973513606701 M416.7077036194666,746.0973513606701 L416.48110969130505,746.9180268998203 M416.48110969130505,746.9180268998203 L416.11816068719105,747.7347419947164 M416.11816068719105,747.7347419947164 L415.6399454758666,748.500038864096 M415.6399454758666,748.500038864096 L415.0742569433364,749.1694414267239 M415.0742569433364,749.1694414267239 L414.4539660061703,749.7040512171501 M414.4539660061703,749.7040512171501 L413.8151194889645,750.0727984092817 M413.8151194889645,750.0727984092817 L413.1948448241353,750.2542508029642 M413.1948448241353,750.2542508029642 L412.62918834191817,750.2378621417829 M412.62918834191817,750.2378621417829 L412.15102518938545,750.0245799495935 M412.15102518938545,750.0245799495935 L411.7881441630526,749.6267984904882 M411.7881441630526,749.6267984904882 L411.5616389004653,749.0676300888804 M411.5616389004653,749.0676300888804 L411.4846740433765,748.3795744047732 M411.4846740433765,748.3795744047732 L411.561725364664,747.6026166624746 M411.561725364664,747.6026166624746 L411.78831535647566,746.7819110842852 M411.78831535647566,746.7819110842852 L412.151276988552,745.9651604797416 M412.151276988552,745.9651604797416 L412.6295131405185,745.1998315603998 M412.6295131405185,745.1998315603998 L413.19523036475016,744.5304053050418 M413.19523036475016,744.5304053050418 L413.81554805924173,743.9957897007423 M413.81554805924173,743.9957897007423 L414.45441439294603,743.6270539598428 M414.45441439294603,743.6270539598428 L415.07469739367633,743.4456276591296 M415.07469739367633,743.4456276591296 L415.64034769824923,743.4620530230941 M415.64034769824923,743.4620530230941 L416.11849468736256,743.6753700258282 M416.11849468736256,743.6753700258282 L416.48134903173707,744.0731788732893 M416.48134903173707,744.0731788732893 L416.70782856493395,744.6323601711864 M416.70782856493395,744.6323601711864 L416.78476831499177,745.3204136005659 M379.08336113067566,723.5327840100438 L379.00638495539573,724.3101394685177 M379.00638495539573,724.3101394685177 L378.77977498481056,725.1312262514123 M378.77977498481056,725.1312262514123 L378.4166996985712,725.9483273490418 M378.4166996985712,725.9483273490418 L377.9382608560499,726.7139568261301 M377.9382608560499,726.7139568261301 L377.37225990918034,727.3836218291483 M377.37225990918034,727.3836218291483 L376.75158923414887,727.9184118520747 M376.75158923414887,727.9184118520747 L376.112316597048,728.2872409032302 M376.112316597048,728.2872409032302 L375.4915941936745,728.4686720235743 M375.4915941936745,728.4686720235743 L374.92549549810553,728.4521658819735 M374.92549549810553,728.4521658819735 L374.446918050174,728.2386736170838 M374.446918050174,728.2386736170838 L374.08367915462856,727.8405991434611 M374.08367915462856,727.8405991434611 L373.85688769600426,727.28107753669 M373.85688769600426,727.28107753669 L373.7797315643535,726.5926238714012 M373.7797315643535,726.5926238714012 L373.85669209671624,725.8152497053734 M373.85669209671624,725.8152497053734 L374.08330261729145,724.994130258183 M374.08330261729145,724.994130258183 L374.44638829143105,724.1769936162748 M374.44638829143105,724.1769936162748 L374.9248503425139,723.4113307639559 M374.9248503425139,723.4113307639559 L375.49087776332965,722.7416446460059 M375.49087776332965,722.7416446460059 L376.1115752272864,722.2068488083813 M376.1115752272864,722.2068488083813 L376.75086770734754,721.8380312237491 M376.75086770734754,721.8380312237491 L377.37159846183675,721.6566262242517 M377.37159846183675,721.6566262242517 L377.937693227621,721.6731665082332 M377.937693227621,721.6731665082332 L378.41625225060795,721.8866949126314 M378.41625225060795,721.8866949126314 L378.7794666854233,722.2847967983575 M378.7794666854233,722.2847967983575 L379.00622788872886,722.8443339037981 M379.00622788872886,722.8443339037981 L379.08336113067566,723.5327840100438 M379.0880101039735,767.0786011449703 L379.0110510222376,767.855640742622 M379.0110510222376,767.855640742622 L378.78449140795146,768.6764498107639 M378.78449140795146,768.6764498107639 L378.4214968143478,769.493326181224 M378.4214968143478,769.493326181224 L377.94316431147485,770.258799496984 M377.94316431147485,770.258799496984 L377.37728917243817,770.9283859796012 M377.37728917243817,770.9283859796012 L376.7567564622021,771.463174568619 M376.7567564622021,771.463174568619 L376.1176259308376,771.8320856959381 M376.1176259308376,771.8320856959381 L375.49704151587605,772.013677633653 M375.49704151587605,772.013677633653 L374.93106867152505,771.9973953666743 M374.93106867152505,771.9973953666743 L374.4525976245996,771.784182142356 M374.4525976245996,771.784182142356 L374.089439494973,771.3864256590891 M374.089439494973,771.3864256590891 L373.8626984728164,770.8272399932899 M373.8626984728164,770.8272399932899 L373.78555951494684,770.1391219917538 M373.78555951494684,770.1391219917538 L373.86250296046995,769.3620637051811 M373.86250296046995,769.3620637051811 L374.08906312500204,768.5412219940174 M374.08906312500204,768.5412219940174 L374.45206810183504,767.7243113967121 M374.45206810183504,767.7243113967121 L374.9304238031938,766.9588047189102 M374.9304238031938,766.9588047189102 L375.49632540397306,766.2891958277899 M375.49632540397306,766.2891958277899 L376.1168848912346,765.7544014178097 M376.1168848912346,765.7544014178097 L376.7560352567213,765.3855017417266 M376.7560352567213,765.3855017417266 L377.3766280190941,765.203935904077 M377.3766280190941,765.203935904077 L377.9425969357824,765.2202535896158 M377.9425969357824,765.2202535896158 L378.4210495656933,765.4335029365595 M378.4210495656933,765.4335029365595 L378.7841832455957,765.8312855253772 M378.7841832455957,765.8312855253772 L379.01089402538287,766.3904866914427 M379.01089402538287,766.3904866914427 L379.0880101039735,767.0786011449703 M436.53636935249006,706.6819011528561 L437.71469985720387,706.0019699626405 M436.5358616243704,705.3220482210972 L436.76863324967275,705.4903911544652 M436.76863324967275,705.4903911544652 L436.9306477833523,705.6843872942593 M436.9306477833523,705.6843872942593 L437.01377934034406,705.8943092430891 M437.01377934034406,705.8943092430891 L437.01386191010675,706.1096309190903 M437.01386191010675,706.1096309190903 L436.9308869352563,706.3195543682101 M436.9308869352563,706.3195543682101 L436.7690177010956,706.5135541198642 M436.7690177010956,706.5135541198642 L436.53636935249006,706.6819011528561 M420.03384628014146,695.8041358398098 L436.5358616243704,705.3220482210972 M417.67692318836015,695.8041358398098 L417.96867728144673,695.6699133864926 M417.96867728144673,695.6699133864926 L418.3049005742776,695.5765089349866 M418.3049005742776,695.5765089349866 L418.66873234089746,695.5286051712951 M418.66873234089746,695.5286051712951 L419.04193093433537,695.5286058195848 M419.04193093433537,695.5286058195848 L419.40578172548203,695.5765086108414 M419.40578172548203,695.5765086108414 L419.7420404558336,695.6699133864926 M419.7420404558336,695.6699133864926 L420.03384628014146,695.8041358398098 M401.1785761814313,705.3220482210972 L417.67692318836015,695.8041358398098 M401.1785925597577,706.6819011528561 L400.9458793278379,706.5135541198642 M400.9458793278379,706.5135541198642 L400.7839347614522,706.3195546924264 M400.7839347614522,706.3195546924264 L400.7008805651309,706.1096309190903 M400.7008805651309,706.1096309190903 L400.70087789891977,705.8943092430891 M400.70087789891977,705.8943092430891 L400.78393023501803,705.6843876184714 M400.78393023501803,705.6843876184714 L400.94586943786317,705.4903911544652 M400.94586943786317,705.4903911544652 L401.1785761814313,705.3220482210972 M417.6806083118489,716.201930036784 L401.1785925597577,706.6819011528561 M420.0380227534288,716.201930036784 L419.7462102770256,716.3362088273195 M419.7462102770256,716.3362088273195 L419.40991702378204,716.4296529183187 M419.40991702378204,716.4296529183187 L419.0460079002094,716.477577150112 M419.0460079002094,716.477577150112 L418.67272940321897,716.4775765015447 M418.67272940321897,716.4775765015447 L418.30880124710507,716.4296532426021 M418.30880124710507,716.4296532426021 L417.97247254118645,716.3362088273195 M417.97247254118645,716.3362088273195 L417.6806083118489,716.201930036784 M418.85944658747775,716.8820029807238 L420.0380227534288,716.201930036784 M381.14055341252225,716.8820029807238 L418.85944658747775,716.8820029807238 M436.53636935249006,706.6819011528561 L436.537384851065,701.2359646704797 M436.5358616243704,705.3220482210972 L436.5368770947213,699.8761496248721 M420.03384628014146,695.8041358398098 L420.0344030426536,690.3585024465696 M417.67692318836015,695.8041358398098 L417.6774144494002,690.3585024465696 M401.1785761814313,705.3220482210972 L401.17860893853947,699.8761496248721 M401.1785925597577,706.6819011528561 L401.17862531777627,701.2359646704797 M417.6806083118489,716.201930036784 L417.68109977774037,710.7557283512803 M420.0380227534288,716.201930036784 L420.03857974810575,710.7557283512803 M418.85944658747775,716.8820029807238 L418.8599708250479,711.4357823521352 M436.52012904885305,793.7757329370198 L436.5211436448441,788.3346368498538 M436.51962177199715,792.4152746847349 L436.52063633980185,786.9742163828266 M420.0249422866281,782.8931250602856 L420.02549855433983,777.4523312551842 M417.66906672349546,782.8931250602856 L417.66955754794697,777.4523312551842 M401.17805231522567,792.4152746847349 L401.1780850432194,786.9742163828266 M401.1780686789952,793.7757329370198 L401.17810140789817,788.3346368498538 M417.6727485716829,803.2999990650517 L417.6732396007128,797.8586384810934 M420.02911504790734,803.2999990650517 L420.02967154747455,797.8586384810934 M418.8510627481412,803.9803746693093 L418.851586519716,798.5389951927239 M413.72527712693073,701.3716562279795 L415.25688455643694,701.5755470406267 M415.25688455643694,701.5755470406267 L416.7884989306129,701.779439027048 M376.01961550786234,723.1248198816872 L377.5514848456789,723.328801358623 M377.5514848456789,723.328801358623 L379.08336113067566,723.5327840100438 M413.7222272104298,744.9125400035177 L415.2534942918566,745.1164762151185 M415.2534942918566,745.1164762151185 L416.78476831499177,745.3204136005659 M376.0249454130767,766.6705462185749 L377.5564742864164,766.8745730944938 M377.5564742864164,766.8745730944938 L379.0880101039735,767.0786011449703" stroke="black"  stroke-width="4"  fill="red"/>
<path d="M418.84713538885535,783.5732172012856 L418.9228277511427,-3.0284982814813475 M402.35612099410736,793.095499086539 L402.36558438312744,6.455239103808196 M418.84713538885535,783.5732172012856 L402.35612099410736,793.095499086539 M418.9228277511427,-3.0284982814813475 L402.36558438312744,6.455239103808196 M418.85080087326793,802.6196329124245 L418.9265227396153,15.940828342360419 M402.35612099410736,793.095499086539 L418.85080087326793,802.6196329124245 M402.36558438312744,6.455239103808196 L418.9265227396153,15.940828342360419 M435.3418149116099,793.095499086539 L435.48376574691247,6.455239103808196 M418.85080087326793,802.6196329124245 L435.3418149116099,793.095499086539 M418.9265227396153,15.940828342360419 L435.48376574691247,6.455239103808196 M435.3418149116099,793.095499086539 L418.84713538885535,783.5732172012856 M435.48376574691247,6.455239103808196 L418.9228277511427,-3.0284982814813475" stroke="black"  stroke-width="4"  fill="red"/>
<path d="M420.0249422866281,782.8931250602856 L420.10536430232366,-3.705837247312388 M417.66906672349546,782.8931250602856 L417.74002732557966,-3.705837247312388 M420.0249422866281,782.8931250602856 L419.7332661667295,782.7588428470981 M419.7332661667295,782.7588428470981 L419.3971568937652,782.665396484737 M419.3971568937652,782.665396484737 L419.0334678189698,782.6174723656377 M419.0334678189698,782.6174723656377 L418.66043509225847,782.6174717170594 M418.66043509225847,782.6174717170594 L418.2967650253325,782.6653968090266 M418.2967650253325,782.6653968090266 L417.9606911581461,782.7588428470981 M417.9606911581461,782.7588428470981 L417.66906672349546,782.8931250602856 M420.10536430232366,-3.705837247312388 L419.8125166751146,-3.839575849611947 M419.8125166751146,-3.839575849611947 L419.4750574835283,-3.9326439148366035 M419.4750574835283,-3.9326439148366035 L419.10990776570804,-3.980374023356717 M419.10990776570804,-3.980374023356717 L418.73537690938406,-3.980374669309299 M418.73537690938406,-3.980374669309299 L418.3702463501493,-3.932643591860085 M418.3702463501493,-3.932643591860085 L418.03282285156195,-3.839575849611947 M418.03282285156195,-3.839575849611947 L417.74002732557966,-3.705837247312388 M401.17805231522567,792.4152746847349 L401.1827839438792,5.777767883495869 M417.66906672349546,782.8931250602856 L401.17805231522567,792.4152746847349 M417.74002732557966,-3.705837247312388 L401.1827839438792,5.777767883495869 M401.1780686789952,793.7757329370198 L401.1828004393633,7.132719772351493 M401.17805231522567,792.4152746847349 L400.9454490069286,792.5836925546421 M400.9454490069286,792.5836925546421 L400.7835817839937,792.7777753743364 M400.7835817839937,792.7777753743364 L400.70056636335886,792.9877904431914 M400.70056636335886,792.9877904431914 L400.70056902769966,793.2032079667855 M400.70056902769966,793.2032079667855 L400.78358630615514,793.413225184504 M400.78358630615514,793.413225184504 L400.94545888811314,793.6073109674869 M400.94545888811314,793.6073109674869 L401.1780686789952,793.7757329370198 M401.1827839438792,5.777767883495869 L400.94924639459737,5.9455040851830745 M400.94924639459737,5.9455040851830745 L400.7867290396387,6.138801361120613 M400.7867290396387,6.138801361120613 L400.70338019368734,6.347966404436249 M400.70338019368734,6.347966404436249 L400.7033828749432,6.562512040067588 M400.7033828749432,6.562512040067588 L400.78673360046514,6.771679230848008 M400.78673360046514,6.771679230848008 L400.9492563553171,6.9649794712318 M400.9492563553171,6.9649794712318 L401.1828004393633,7.132719772351493 M417.6727485716829,803.2999990650517 L417.7437388095417,16.61844130689161 M401.1780686789952,793.7757329370198 L417.6727485716829,803.2999990650517 M401.1828004393633,7.132719772351493 L417.7437388095417,16.61844130689161 M420.02911504790734,803.2999990650517 L420.1095706508139,16.61844130689161 M417.6727485716829,803.2999990650517 L417.96448304469664,803.4343376154825 M417.96448304469664,803.4343376154825 L418.3006622310309,803.5278236174927 M418.3006622310309,803.5278236174927 L418.6644286020305,803.5757682042871 M418.6644286020305,803.5757682042871 L419.03754116127703,803.575768853143 M419.03754116127703,803.575768853143 L419.4012885164034,803.527823293065 M419.4012885164034,803.527823293065 L419.73743228182576,803.4343376154825 M419.73743228182576,803.4343376154825 L420.02911504790734,803.2999990650517 M417.7437388095417,16.61844130689161 L418.03664525960306,16.752236243776792 M418.03664525960306,16.752236243776792 L418.374174927334,16.845343946780304 M418.374174927334,16.845343946780304 L418.73940256354365,16.893094522030083 M418.73940256354365,16.893094522030083 L419.1140138949874,16.893095168260345 M419.1140138949874,16.893095168260345 L419.4792223645115,16.8453436236656 M419.4792223645115,16.8453436236656 L419.81671632392585,16.752236243776792 M419.81671632392585,16.752236243776792 L420.1095706508139,16.61844130689161 M436.52012904885305,793.7757329370198 L436.66681362026264,7.132719772351493 M420.02911504790734,803.2999990650517 L436.52012904885305,793.7757329370198 M420.1095706508139,16.61844130689161 L436.66681362026264,7.132719772351493 M436.51962177199715,792.4152746847349 L436.66630226025563,5.777767883495869 M436.52012904885305,793.7757329370198 L436.75267401408894,793.6073109674869 M436.75267401408894,793.6073109674869 L436.9144713305271,793.4132248601434 M436.9144713305271,793.4132248601434 L436.9974094586722,793.2032079667855 M436.9974094586722,793.2032079667855 L436.99732696179734,792.9877904431914 M436.99732696179734,792.9877904431914 L436.9142323914286,792.77777504998 M436.9142323914286,792.77777504998 L436.75228990436267,792.5836925546421 M436.75228990436267,792.5836925546421 L436.51962177199715,792.4152746847349 M436.66681362026264,7.132719772351493 L436.9002923568675,6.9649794712318 M436.9002923568675,6.9649794712318 L437.0627392426385,6.771678907800094 M437.0627392426385,6.771678907800094 L437.1460101739594,6.562512040067588 M437.1460101739594,6.562512040067588 L437.1459270175848,6.347966404436249 M437.1459270175848,6.347966404436249 L437.06249837801636,6.138801038076963 M437.06249837801636,6.138801038076963 L436.8999051553817,5.9455040851830745 M436.8999051553817,5.9455040851830745 L436.66630226025563,5.777767883495869 M436.51962177199715,792.4152746847349 L420.0249422866281,782.8931250602856 M436.66630226025563,5.777767883495869 L420.10536430232366,-3.705837247312388 M435.3418149116099,793.095499086539 L435.48376574691247,6.455239103808196 M418.84713538885535,783.5732172012856 L418.9228277511427,-3.0284982814813475 M435.3418149116099,793.095499086539 L418.84713538885535,783.5732172012856 M435.48376574691247,6.455239103808196 L418.9228277511427,-3.0284982814813475 M418.85080087326793,802.6196329124245 L418.9265227396153,15.940828342360419 M418.85080087326793,802.6196329124245 L435.3418149116099,793.095499086539 M418.9265227396153,15.940828342360419 L435.48376574691247,6.455239103808196 M402.35612099410736,793.095499086539 L402.36558438312744,6.455239103808196 M402.35612099410736,793.095499086539 L418.85080087326793,802.6196329124245 M402.36558438312744,6.455239103808196 L418.9265227396153,15.940828342360419 M418.84713538885535,783.5732172012856 L402.35612099410736,793.095499086539 M418.9228277511427,-3.0284982814813475 L402.36558438312744,6.455239103808196" stroke="black"  stroke-width="4"  fill="red"/>
<path d="M413.7222272104298,744.9125400035177 L413.67941769823494,745.3441731096711 M413.67941769823494,745.3441731096711 L413.55353707740153,745.8001026474318 M413.55353707740153,745.8001026474318 L413.3519013160085,746.2538326822018 M413.3519013160085,746.2538326822018 L413.08622658905665,746.6789960075483 M413.08622658905665,746.6789960075483 L412.7719531119197,747.0508844917645 M412.7719531119197,747.0508844917645 L412.4273444261534,747.347885971773 M412.4273444261534,747.347885971773 L412.0724272473368,747.5527395571651 M412.0724272473368,747.5527395571651 L411.7278279880971,747.6535393466033 M411.7278279880971,747.6535393466033 L411.4135733021418,747.644426911668 M411.4135733021418,747.644426911668 L411.1479264996298,747.5259310352824 M411.1479264996298,747.5259310352824 L410.94632608808325,747.3049371636032 M410.94632608808325,747.3049371636032 L410.8204893471209,746.9942878245092 M410.8204893471209,746.9942878245092 L410.7777303882735,746.6120360176095 M410.7777303882735,746.6120360176095 L410.8205343026856,746.1803975925536 M410.8205343026856,746.1803975925536 L410.9464144018601,745.7244583834665 M410.9464144018601,745.7244583834665 L411.14805483721057,745.2707165405275 M411.14805483721057,745.2707165405275 L411.4137363739401,744.8455418260078 M411.4137363739401,744.8455418260078 L411.7280183596527,744.4736479272881 M411.7280183596527,744.4736479272881 L412.07263530387445,744.1766433556193 M412.07263530387445,744.1766433556193 L412.4275585988951,743.9717933045584 M412.4275585988951,743.9717933045584 L412.77216043092335,743.8710028657613 M412.77216043092335,743.8710028657613 L413.08641355709904,743.8801247306559 M413.08641355709904,743.8801247306559 L413.35205502427397,743.9986328482403 M413.35205502427397,743.9986328482403 L413.5536464241942,744.219636021508 M413.5536464241942,744.219636021508 L413.67947453074595,744.5302897409695 M413.67947453074595,744.5302897409695 L413.7222272104298,744.9125400035177 M413.7222272104298,744.9125400035177 L404.2989992616118,739.4745489424929 M404.2989992616118,739.4745489424929 L404.2562270063127,739.0923072466416 M404.2562270063127,739.0923072466416 L404.1303804612562,738.7816561098423 M404.1303804612562,738.7816561098423 L403.92877283154365,738.5606493850621 M403.92877283154365,738.5606493850621 L403.66311828650186,738.4421317880118 M403.66311828650186,738.4421317880118 L403.3488559946456,738.4329950664626 M403.3488559946456,738.4329950664626 L403.0042494416019,738.5337661348792 M403.0042494416019,738.5337661348792 L402.6493261448287,738.7385934274073 M402.6493261448287,738.7385934274073 L402.3047139182189,739.0355731750628 M402.3047139182189,739.0355731750628 L401.9904410950833,739.4074416271341 M401.9904410950833,739.4074416271341 L401.72477263359707,739.8325917511681 M401.72477263359707,739.8325917511681 L401.52314842604767,740.2863112890655 M401.52314842604767,740.2863112890655 L401.397286764135,740.7422317749233 M401.397286764135,740.7422317749233 L401.3545024249157,741.1738561467598 M401.3545024249157,741.1738561467598 L401.397280959216,741.5560993871718 M401.397280959216,741.5560993871718 L401.5231361382324,741.8667461443836 M401.5231361382324,741.8667461443836 L401.72475277893597,742.0877435687478 M401.72475277893597,742.0877435687478 L401.9904126585777,742.206248925804 M401.9904126585777,742.206248925804 L402.3046765097166,742.2153762183268 M402.3046765097166,742.2153762183268 L402.64928048959337,742.1145957998525 M402.64928048959337,742.1145957998525 L403.00419767016257,741.9097649729936 M403.00419767016257,741.9097649729936 L403.348801638695,741.6127883164158 M403.348801638695,741.6127883164158 L403.6630659537518,741.2409252779157 M403.6630659537518,741.2409252779157 L403.9287276061974,740.8157865418502 M403.9287276061974,740.8157865418502 L404.13034714042476,740.3620788109492 M404.13034714042476,740.3620788109492 L404.25620932444696,739.9061679956367 M404.25620932444696,739.9061679956367 L404.2989992616118,739.4745489424929" stroke="black"  stroke-width="4"  fill="red"/>
<path d="M413.7222272104298,744.9125400035177 L413.67941769823494,745.3441731096711 M413.67941769823494,745.3441731096711 L413.55353707740153,745.8001026474318 M413.55353707740153,745.8001026474318 L413.3519013160085,746.2538326822018 M413.3519013160085,746.2538326822018 L413.08622658905665,746.6789960075483 M413.08622658905665,746.6789960075483 L412.7719531119197,747.0508844917645 M412.7719531119197,747.0508844917645 L412.4273444261534,747.347885971773 M412.4273444261534,747.347885971773 L412.0724272473368,747.5527395571651 M412.0724272473368,747.5527395571651 L411.7278279880971,747.6535393466033 M411.7278279880971,747.6535393466033 L411.4135733021418,747.644426911668 M411.4135733021418,747.644426911668 L411.1479264996298,747.5259310352824 M411.1479264996298,747.5259310352824 L410.94632608808325,747.3049371636032 M410.94632608808325,747.3049371636032 L410.8204893471209,746.9942878245092 M410.8204893471209,746.9942878245092 L410.7777303882735,746.6120360176095 M410.7777303882735,746.6120360176095 L411.4846740433765,748.3795744047732 M416.78476831499177,745.3204136005659 L416.7077036194666,746.0973513606701 M416.7077036194666,746.0973513606701 L416.48110969130505,746.9180268998203 M416.48110969130505,746.9180268998203 L416.11816068719105,747.7347419947164 M416.11816068719105,747.7347419947164 L415.6399454758666,748.500038864096 M415.6399454758666,748.500038864096 L415.0742569433364,749.1694414267239 M415.0742569433364,749.1694414267239 L414.4539660061703,749.7040512171501 M414.4539660061703,749.7040512171501 L413.8151194889645,750.0727984092817 M413.8151194889645,750.0727984092817 L413.1948448241353,750.2542508029642 M413.1948448241353,750.2542508029642 L412.62918834191817,750.2378621417829 M412.62918834191817,750.2378621417829 L412.15102518938545,750.0245799495935 M412.15102518938545,750.0245799495935 L411.7881441630526,749.6267984904882 M411.7881441630526,749.6267984904882 L411.5616389004653,749.0676300888804 M411.5616389004653,749.0676300888804 L411.4846740433765,748.3795744047732 M413.7222272104298,744.9125400035177 L416.78476831499177,745.3204136005659 M410.7777303882735,746.6120360176095 L410.8205343026856,746.1803975925536 M410.8205343026856,746.1803975925536 L410.9464144018601,745.7244583834665 M410.9464144018601,745.7244583834665 L411.14805483721057,745.2707165405275 M411.14805483721057,745.2707165405275 L411.4137363739401,744.8455418260078 M411.4137363739401,744.8455418260078 L411.7280183596527,744.4736479272881 M411.7280183596527,744.4736479272881 L412.07263530387445,744.1766433556193 M412.07263530387445,744.1766433556193 L412.4275585988951,743.9717933045584 M412.4275585988951,743.9717933045584 L412.77216043092335,743.8710028657613 M412.77216043092335,743.8710028657613 L413.08641355709904,743.8801247306559 M413.08641355709904,743.8801247306559 L413.35205502427397,743.9986328482403 M413.35205502427397,743.9986328482403 L413.5536464241942,744.219636021508 M413.5536464241942,744.219636021508 L413.67947453074595,744.5302897409695 M413.67947453074595,744.5302897409695 L413.7222272104298,744.9125400035177 M411.4846740433765,748.3795744047732 L411.561725364664,747.6026166624746 M411.561725364664,747.6026166624746 L411.78831535647566,746.7819110842852 M411.78831535647566,746.7819110842852 L412.151276988552,745.9651604797416 M412.151276988552,745.9651604797416 L412.6295131405185,745.1998315603998 M412.6295131405185,745.1998315603998 L413.19523036475016,744.5304053050418 M413.19523036475016,744.5304053050418 L413.81554805924173,743.9957897007423 M413.81554805924173,743.9957897007423 L414.45441439294603,743.6270539598428 M414.45441439294603,743.6270539598428 L415.07469739367633,743.4456276591296 M415.07469739367633,743.4456276591296 L415.64034769824923,743.4620530230941 M415.64034769824923,743.4620530230941 L416.11849468736256,743.6753700258282 M416.11849468736256,743.6753700258282 L416.48134903173707,744.0731788732893 M416.48134903173707,744.0731788732893 L416.70782856493395,744.6323601711864 M416.70782856493395,744.6323601711864 L416.78476831499177,745.3204136005659" stroke="black"  stroke-width="4"  fill="red"/>
<path d="M413.72527712693073,701.3716562279795 L413.6824580942989,701.8034647514401 M413.6824580942989,701.8034647514401 L413.55654949167894,702.2595459219594 M413.55654949167894,702.2595459219594 L413.35486891288497,702.7134026298618 M413.35486891288497,702.7134026298618 L413.0891351376094,703.1386513727493 M413.0891351376094,703.1386513727493 L412.7747918123726,703.5105854694193 M412.7747918123726,703.5105854694193 L412.430106537861,703.8075875856791 M412.430106537861,703.8075875856791 L412.07511048047877,704.0123955713445 M412.07511048047877,704.0123955713445 L411.730434636847,704.1131061748181 M411.730434636847,704.1131061748181 L411.4161101113083,704.1038673729329 M411.4161101113083,704.1038673729329 L411.1504042727248,703.9852178124029 M411.1504042727248,703.9852178124029 L410.94875906006723,703.7640454561999 M410.94875906006723,703.7640454561999 L410.82289435650165,703.4532121394107 M410.82289435650165,703.4532121394107 L410.7801258994423,703.0707739170874 M410.7801258994423,703.0707739170874 L410.82293933205256,702.6389600688765 M410.82293933205256,702.6389600688765 L410.94884741281646,702.1828692204414 M410.94884741281646,702.1828692204414 L411.1505326673616,701.7290006983769 M411.1505326673616,701.7290006983769 L411.41627325537775,701.3037418596102 M411.41627325537775,701.3037418596102 L411.7306250930373,700.9318010498356 M411.7306250930373,700.9318010498356 L412.0753186295933,700.6347971412133 M412.0753186295933,700.6347971412133 L412.43032080590086,700.4299926945937 M412.43032080590086,700.4299926945937 L412.77499922354485,700.3292901508084 M412.77499922354485,700.3292901508084 L413.0893221885127,700.3385396865897 M413.0893221885127,700.3385396865897 L413.35502268948494,700.4572001961797 M413.35502268948494,700.4572001961797 L413.55665888672496,700.6783818565816 M413.55665888672496,700.6783818565816 L413.68251495207613,700.9892195533123 M413.68251495207613,700.9892195533123 L413.72527712693073,701.3716562279795 M413.72527712693073,701.3716562279795 L404.2999547085721,695.9348758068122 M404.2999547085721,695.9348758068122 L404.25717294939926,695.552447713924 M404.25717294939926,695.552447713924 L404.13129843747055,695.2416126139914 M404.13129843747055,695.2416126139914 L403.9296460030977,695.0204274146577 M403.9296460030977,695.0204274146577 L403.6639324185688,694.901757435611 M403.6639324185688,694.901757435611 L403.3496002837201,694.8924930503163 M403.3496002837201,694.8924930503163 L403.00491714296146,694.9931762273663 M403.00491714296146,694.9931762273663 L402.64991496490023,695.1979579154631 M402.64991496490023,695.1979579154631 L402.3052261480532,695.4949369964453 M402.3052261480532,695.4949369964453 L401.99088347716867,695.8668523524475 M401.99088347716867,695.8668523524475 L401.72515597008373,696.2920865907334 M401.72515597008373,696.2920865907334 L401.523486950679,696.745932795186 M401.523486950679,696.745932795186 L401.3975973152489,697.2020049062625 M401.3975973152489,697.2020049062625 L401.3548034665343,697.6338046861736 M401.3548034665343,697.6338046861736 L401.39759150774927,698.0162343269267 M401.39759150774927,698.0162343269267 L401.52347465744157,698.327065047698 M401.52347465744157,698.327065047698 L401.72513610659615,698.5482409440059 M401.72513610659615,698.5482409440059 L401.99085502806116,698.6668999751619 M401.99085502806116,698.6668999751619 L402.30518872292095,698.6761536275308 M402.30518872292095,698.6761536275308 L402.6498692893513,698.5754623913405 M402.6498692893513,698.5754623913405 L403.00486534848716,698.3706771641992 M403.00486534848716,698.3706771641992 L403.3495459036057,698.0736998750327 M403.3495459036057,698.0736998750327 L403.6638800626271,697.7017912311662 M403.6638800626271,697.7017912311662 L403.92960075764654,697.2765670875904 M403.92960075764654,697.2765670875904 L404.1312651019359,696.8227326961262 M404.1312651019359,696.8227326961262 L404.2571552596731,696.3666702621836 M404.2571552596731,696.3666702621836 L404.2999547085721,695.9348758068122" stroke="black"  stroke-width="4"  fill="red"/>
<path d="M413.72527712693073,701.3716562279795 L413.6824580942989,701.8034647514401 M413.6824580942989,701.8034647514401 L413.55654949167894,702.2595459219594 M413.55654949167894,702.2595459219594 L413.35486891288497,702.7134026298618 M413.35486891288497,702.7134026298618 L413.0891351376094,703.1386513727493 M413.0891351376094,703.1386513727493 L412.7747918123726,703.5105854694193 M412.7747918123726,703.5105854694193 L412.430106537861,703.8075875856791 M412.430106537861,703.8075875856791 L412.07511048047877,704.0123955713445 M412.07511048047877,704.0123955713445 L411.730434636847,704.1131061748181 M411.730434636847,704.1131061748181 L411.4161101113083,704.1038673729329 M411.4161101113083,704.1038673729329 L411.1504042727248,703.9852178124029 M411.1504042727248,703.9852178124029 L410.94875906006723,703.7640454561999 M410.94875906006723,703.7640454561999 L410.82289435650165,703.4532121394107 M410.82289435650165,703.4532121394107 L410.7801258994423,703.0707739170874 M410.7801258994423,703.0707739170874 L411.48722672940534,704.8379188462579 M416.7884989306129,701.779439027048 L416.7114170943348,702.556692539513 M416.7114170943348,702.556692539513 L416.4847727951166,703.3776456908467 M416.4847727951166,703.3776456908467 L416.12174311813726,704.1945854229011 M416.12174311813726,704.1945854229011 L415.6434216195645,704.9600383809527 M415.6434216195645,704.9600383809527 L415.07760736217097,705.6295194134709 M415.07760736217097,705.6295194134709 L414.45717856720853,706.1641306113818 M414.45717856720853,706.1641306113818 L413.8181900705472,706.5327957273981 M413.8181900705472,706.5327957273981 L413.19777755553065,706.7140873302282 M413.19777755553065,706.7140873302282 L412.6319953627617,706.697474845023 M412.6319953627617,706.697474845023 L412.1537259458752,706.4839136849948 M412.1537259458752,706.4839136849948 L411.7907642773355,706.085814325606 M411.7907642773355,706.085814325606 L411.564208682611,705.526310085637 M411.564208682611,705.526310085637 L411.48722672940534,704.8379188462579 M413.72527712693073,701.3716562279795 L416.7884989306129,701.779439027048 M410.7801258994423,703.0707739170874 L410.82293933205256,702.6389600688765 M410.82293933205256,702.6389600688765 L410.94884741281646,702.1828692204414 M410.94884741281646,702.1828692204414 L411.1505326673616,701.7290006983769 M411.1505326673616,701.7290006983769 L411.41627325537775,701.3037418596102 M411.41627325537775,701.3037418596102 L411.7306250930373,700.9318010498356 M411.7306250930373,700.9318010498356 L412.0753186295933,700.6347971412133 M412.0753186295933,700.6347971412133 L412.43032080590086,700.4299926945937 M412.43032080590086,700.4299926945937 L412.77499922354485,700.3292901508084 M412.77499922354485,700.3292901508084 L413.0893221885127,700.3385396865897 M413.0893221885127,700.3385396865897 L413.35502268948494,700.4572001961797 M413.35502268948494,700.4572001961797 L413.55665888672496,700.6783818565816 M413.55665888672496,700.6783818565816 L413.68251495207613,700.9892195533123 M413.68251495207613,700.9892195533123 L413.72527712693073,701.3716562279795 M411.48722672940534,704.8379188462579 L411.56429518525067,704.0606453332633 M411.56429518525067,704.0606453332633 L411.790935546869,703.2396621210507 M411.790935546869,703.2396621210507 L412.1539778572295,702.4226855623606 M412.1539778572295,702.4226855623606 L412.63232030601336,701.6572005408785 M412.63232030601336,701.6572005408785 L413.1981632675501,700.9876971093504 M413.1981632675501,700.9876971093504 L413.81861883172473,700.4530801038293 M413.81861883172473,700.4530801038293 L414.45762715371086,700.0844264543257 M414.45762715371086,700.0844264543257 L415.07804800832537,699.9031609652355 M415.07804800832537,699.9031609652355 L415.6438240210765,699.9198088768878 M415.6438240210765,699.9198088768878 L416.1220772671173,700.1334048646213 M416.1220772671173,700.1334048646213 L416.4850122419532,700.5315329184785 M416.4850122419532,700.5315329184785 L416.7115420953496,701.0910500537157 M416.7115420953496,701.0910500537157 L416.7884989306129,701.779439027048" stroke="black"  stroke-width="4"  fill="red"/>
<path d="M376.0249454130767,766.6705462185749 L375.9821963247085,767.1022348927629 M375.9821963247085,767.1022348927629 L375.85633352039275,767.5582393337744 M375.85633352039275,767.5582393337744 L375.6546719331227,768.0120592541648 M375.6546719331227,768.0120592541648 L375.3889314200299,768.4373209650357 M375.3889314200299,768.4373209650357 L375.0745548961451,768.8093112657092 M375.0745548961451,768.8093112657092 L374.7298118911937,769.106412076276 M374.7298118911937,769.106412076276 L374.37473692631113,769.3113567337357 M374.37473692631113,769.3113567337357 L374.02996558380744,769.4122340438607 M374.02996558380744,769.4122340438607 L373.7155345180224,769.4031810728624 M373.7155345180224,769.4031810728624 L373.44971728952885,769.2847231475488 M373.44971728952885,769.2847231475488 L373.24796343406973,769.0637428595454 M373.24796343406973,769.0637428595454 L373.12199696722496,768.753083206368 M373.12199696722496,768.753083206368 L373.07913954023945,768.370797786688 M373.07913954023945,768.370797786688 L373.12188527316647,767.9391024955682 M373.12188527316647,767.9391024955682 L373.24774755355537,767.483088380106 M373.24774755355537,767.483088380106 L373.4494115684247,767.0292579440427 M373.4494115684247,767.0292579440427 L373.7151588944008,766.6039848391785 M373.7151588944008,766.6039848391785 L374.0295439324389,766.2319891202699 M374.0295439324389,766.2319891202699 L374.37429520167615,765.9348852157107 M374.37429520167615,765.9348852157107 L374.72937628820216,765.7299440925833 M374.72937628820216,765.7299440925833 L375.0741502072966,765.6290761354337 M375.0741502072966,765.6290761354337 L375.38857971390405,765.6381385401244 M375.38857971390405,765.6381385401244 L375.65439160526626,765.7566087114569 M375.65439160526626,765.7566087114569 L375.8561386915996,765.9775970085519 M375.8561386915996,765.9775970085519 L375.98209651815904,766.2882610452194 M375.98209651815904,766.2882610452194 L376.0249454130767,766.6705462185749 M376.0249454130767,766.6705462185749 L366.60171770719035,761.2301376489784 M366.60171770719035,761.2301376489784 L366.55884923771566,760.8478610405668 M366.55884923771566,760.8478610405668 L366.4328729757617,760.5371995811838 M366.4328729757617,760.5371995811838 L366.23110966461775,760.3162077238864 M366.23110966461775,760.3162077238864 L365.96528470195204,760.1977280617302 M365.96528470195204,760.1977280617302 L365.6508460374278,760.1886507869476 M365.6508460374278,760.1886507869476 L365.3060674058311,760.2894993589808 M365.3060674058311,760.2894993589808 L364.9509863263201,760.4944177083971 M364.9509863263201,760.4944177083971 L364.60623978320734,760.7914967742047 M364.60623978320734,760.7914967742047 L364.29186391550877,761.1634670330229 M364.29186391550877,761.1634670330229 L364.0261296713374,761.5887155360374 M364.0261296713374,761.5887155360374 L363.82448188924843,762.0425236585047 M363.82448188924843,762.0425236585047 L363.6986380492287,762.4985190453513 M363.6986380492287,762.4985190453513 L363.65591189254934,762.9302002813457 M363.65591189254934,762.9302002813457 L363.6987888939288,763.3124771364355 M363.6987888939288,763.3124771364355 L363.8247737957168,763.6231342131093 M363.8247737957168,763.6231342131093 L364.0265438753506,763.8441180623445 M364.0265438753506,763.8441180623445 L364.29237417441027,763.962585479687 M364.29237417441027,763.962585479687 L364.6068143976149,763.9716533217108 M364.6068143976149,763.9716533217108 L364.9515904522428,763.8707953972856 M364.9515904522428,763.8707953972856 L365.3066654101108,763.665873513537 M365.3066654101108,763.665873513537 L365.6514036893164,763.3687975411387 M365.6514036893164,763.3687975411387 L365.96577104335915,762.9968326996225 M365.96577104335915,762.9968326996225 L366.2314984753847,762.571595589396 M366.2314984753847,762.571595589396 L366.43314383051023,762.1177979815723 M366.43314383051023,762.1177979815723 L366.5589881949075,761.6618122683951 M366.5589881949075,761.6618122683951 L366.60171770719035,761.2301376489784" stroke="black"  stroke-width="4"  fill="red"/>
<path d="M376.0249454130767,766.6705462185749 L375.9821963247085,767.1022348927629 M375.9821963247085,767.1022348927629 L375.85633352039275,767.5582393337744 M375.85633352039275,767.5582393337744 L375.6546719331227,768.0120592541648 M375.6546719331227,768.0120592541648 L375.3889314200299,768.4373209650357 M375.3889314200299,768.4373209650357 L375.0745548961451,768.8093112657092 M375.0745548961451,768.8093112657092 L374.7298118911937,769.106412076276 M374.7298118911937,769.106412076276 L374.37473692631113,769.3113567337357 M374.37473692631113,769.3113567337357 L374.02996558380744,769.4122340438607 M374.02996558380744,769.4122340438607 L373.7155345180224,769.4031810728624 M373.7155345180224,769.4031810728624 L373.44971728952885,769.2847231475488 M373.44971728952885,769.2847231475488 L373.24796343406973,769.0637428595454 M373.24796343406973,769.0637428595454 L373.12199696722496,768.753083206368 M373.12199696722496,768.753083206368 L373.07913954023945,768.370797786688 M373.07913954023945,768.370797786688 L373.78555951494684,770.1391219917538 M379.0880101039735,767.0786011449703 L379.0110510222376,767.855640742622 M379.0110510222376,767.855640742622 L378.78449140795146,768.6764498107639 M378.78449140795146,768.6764498107639 L378.4214968143478,769.493326181224 M378.4214968143478,769.493326181224 L377.94316431147485,770.258799496984 M377.94316431147485,770.258799496984 L377.37728917243817,770.9283859796012 M377.37728917243817,770.9283859796012 L376.7567564622021,771.463174568619 M376.7567564622021,771.463174568619 L376.1176259308376,771.8320856959381 M376.1176259308376,771.8320856959381 L375.49704151587605,772.013677633653 M375.49704151587605,772.013677633653 L374.93106867152505,771.9973953666743 M374.93106867152505,771.9973953666743 L374.4525976245996,771.784182142356 M374.4525976245996,771.784182142356 L374.089439494973,771.3864256590891 M374.089439494973,771.3864256590891 L373.8626984728164,770.8272399932899 M373.8626984728164,770.8272399932899 L373.78555951494684,770.1391219917538 M376.0249454130767,766.6705462185749 L379.0880101039735,767.0786011449703 M373.07913954023945,768.370797786688 L373.12188527316647,767.9391024955682 M373.12188527316647,767.9391024955682 L373.24774755355537,767.483088380106 M373.24774755355537,767.483088380106 L373.4494115684247,767.0292579440427 M373.4494115684247,767.0292579440427 L373.7151588944008,766.6039848391785 M373.7151588944008,766.6039848391785 L374.0295439324389,766.2319891202699 M374.0295439324389,766.2319891202699 L374.37429520167615,765.9348852157107 M374.37429520167615,765.9348852157107 L374.72937628820216,765.7299440925833 M374.72937628820216,765.7299440925833 L375.0741502072966,765.6290761354337 M375.0741502072966,765.6290761354337 L375.38857971390405,765.6381385401244 M375.38857971390405,765.6381385401244 L375.65439160526626,765.7566087114569 M375.65439160526626,765.7566087114569 L375.8561386915996,765.9775970085519 M375.8561386915996,765.9775970085519 L375.98209651815904,766.2882610452194 M375.98209651815904,766.2882610452194 L376.0249454130767,766.6705462185749 M373.78555951494684,770.1391219917538 L373.86250296046995,769.3620637051811 M373.86250296046995,769.3620637051811 L374.08906312500204,768.5412219940174 M374.08906312500204,768.5412219940174 L374.45206810183504,767.7243113967121 M374.45206810183504,767.7243113967121 L374.9304238031938,766.9588047189102 M374.9304238031938,766.9588047189102 L375.49632540397306,766.2891958277899 M375.49632540397306,766.2891958277899 L376.1168848912346,765.7544014178097 M376.1168848912346,765.7544014178097 L376.7560352567213,765.3855017417266 M376.7560352567213,765.3855017417266 L377.3766280190941,765.203935904077 M377.3766280190941,765.203935904077 L377.9425969357824,765.2202535896158 M377.9425969357824,765.2202535896158 L378.4210495656933,765.4335029365595 M378.4210495656933,765.4335029365595 L378.7841832455957,765.8312855253772 M378.7841832455957,765.8312855253772 L379.01089402538287,766.3904866914427 M379.01089402538287,766.3904866914427 L379.0880101039735,767.0786011449703" stroke="black"  stroke-width="4"  fill="red"/>
<path d="M376.01961550786234,723.1248198816872 L375.97685692567416,723.5566840336633 M375.97685692567416,723.5566840336633 L375.8509661469943,724.0128401639669 M375.8509661469943,724.0128401639669 L375.6492597315904,724.4667868076399 M375.6492597315904,724.4667868076399 L375.3834601406741,724.8921339761918 M375.3834601406741,724.8921339761918 L375.0690137231221,725.2641699176847 M375.0690137231221,725.2641699176847 L374.7241940699533,725.5612713791656 M374.7241940699533,725.5612713791656 L374.3690401563488,725.7661704368703 M374.3690401563488,725.7661704368703 L374.0241921526894,725.8669585463128 M374.0241921526894,725.8669585463128 L373.70969116864654,725.857779179948 M373.70969116864654,725.857779179948 L373.44381482855346,725.7391675303068 M373.44381482855346,725.7391675303068 L373.24201610300673,725.5180087075947 M373.24201610300673,725.5180087075947 L373.11602161637643,725.2071650201663 M373.11602161637643,725.2071650201663 L373.07315464764525,724.8246931245728 M373.07315464764525,724.8246931245728 L373.1159098726501,724.392822350103 M373.1159098726501,724.392822350103 L373.24180012720427,723.9366565387556 M373.24180012720427,723.9366565387556 L373.4435089715021,723.4826993731241 M373.4435089715021,723.4826993731241 L373.7093153785165,723.0573421040145 M373.7093153785165,723.0573421040145 L374.02377031382287,722.6852994455398 M374.02377031382287,722.6852994455398 L374.3685982351202,722.3881961895089 M374.3685982351202,722.3881961895089 L374.72375827309304,722.1833006708532 M374.72375827309304,722.1833006708532 L375.06860885431945,722.0825206232926 M375.06860885431945,722.0825206232926 L375.3831082786437,722.0917107274342 M375.3831082786437,722.0917107274342 L375.6489792790802,722.210333330815 M375.6489792790802,722.210333330815 L375.85077123220645,722.4315001655198 M375.85077123220645,722.4315001655198 L375.97675707474366,722.742348236013 M375.97675707474366,722.742348236013 L376.01961550786234,723.1248198816872 M376.01961550786234,723.1248198816872 L366.5942933325974,717.6856219527866 M366.5942933325974,717.6856219527866 L366.5514153162194,717.3031588871447 M366.5514153162194,717.3031588871447 L366.42541103021705,716.992313408077 M366.42541103021705,716.992313408077 L366.2236028449428,716.7711430257541 M366.2236028449428,716.7711430257541 L365.9577187675175,716.652510941561 M365.9577187675175,716.652510941561 L365.64321018108143,716.6433059744685 M365.64321018108143,716.6433059744685 L365.2983548852592,716.7440666405566 M365.2983548852592,716.7440666405566 L364.94319485430606,716.9489393855079 M364.94319485430606,716.9489393855079 L364.5983716612358,717.2460177991552 M364.5983716612358,717.2460177991552 L364.28392590047235,717.6180349904096 M364.28392590047235,717.6180349904096 L364.018132580955,718.0433676476672 M364.018132580955,718.0433676476672 L363.8164399767801,718.4973024871254 M363.8164399767801,718.4973024871254 L363.69056817066905,718.95344955572 M363.69056817066905,718.95344955572 L363.64783253061546,719.3853062599769 M363.64783253061546,719.3853062599769 L363.69071908244274,719.7677695758914 M363.69071908244274,719.7677695758914 L363.8167320120866,720.0786106726755 M363.8167320120866,720.0786106726755 L364.018546969145,720.2997730440355 M364.018546969145,720.2997730440355 L364.28443638555143,720.4183941756592 M364.28443638555143,720.4183941756592 L364.59894653114617,720.4275884059452 M364.59894653114617,720.4275884059452 L364.94379924908554,720.3268196785237 M364.94379924908554,720.3268196785237 L365.29895315567074,720.1219433945244 M365.29895315567074,720.1219433945244 L365.6437680809289,719.8248667748796 M365.6437680809289,719.8248667748796 L365.95820532449835,719.4528562996375 M365.95820532449835,719.4528562996375 L366.2239918285931,719.0275337417677 M366.2239918285931,719.0275337417677 L366.42568200451035,718.5736094232377 M366.42568200451035,718.5736094232377 L366.5515543351979,718.1174720349047 M366.5515543351979,718.1174720349047 L366.5942933325974,717.6856219527866" stroke="black"  stroke-width="4"  fill="red"/>
<path d="M376.01961550786234,723.1248198816872 L375.97685692567416,723.5566840336633 M375.97685692567416,723.5566840336633 L375.8509661469943,724.0128401639669 M375.8509661469943,724.0128401639669 L375.6492597315904,724.4667868076399 M375.6492597315904,724.4667868076399 L375.3834601406741,724.8921339761918 M375.3834601406741,724.8921339761918 L375.0690137231221,725.2641699176847 M375.0690137231221,725.2641699176847 L374.7241940699533,725.5612713791656 M374.7241940699533,725.5612713791656 L374.3690401563488,725.7661704368703 M374.3690401563488,725.7661704368703 L374.0241921526894,725.8669585463128 M374.0241921526894,725.8669585463128 L373.70969116864654,725.857779179948 M373.70969116864654,725.857779179948 L373.44381482855346,725.7391675303068 M373.44381482855346,725.7391675303068 L373.24201610300673,725.5180087075947 M373.24201610300673,725.5180087075947 L373.11602161637643,725.2071650201663 M373.11602161637643,725.2071650201663 L373.07315464764525,724.8246931245728 M373.07315464764525,724.8246931245728 L373.7797315643535,726.5926238714012 M379.08336113067566,723.5327840100438 L379.00638495539573,724.3101394685177 M379.00638495539573,724.3101394685177 L378.77977498481056,725.1312262514123 M378.77977498481056,725.1312262514123 L378.4166996985712,725.9483273490418 M378.4166996985712,725.9483273490418 L377.9382608560499,726.7139568261301 M377.9382608560499,726.7139568261301 L377.37225990918034,727.3836218291483 M377.37225990918034,727.3836218291483 L376.75158923414887,727.9184118520747 M376.75158923414887,727.9184118520747 L376.112316597048,728.2872409032302 M376.112316597048,728.2872409032302 L375.4915941936745,728.4686720235743 M375.4915941936745,728.4686720235743 L374.92549549810553,728.4521658819735 M374.92549549810553,728.4521658819735 L374.446918050174,728.2386736170838 M374.446918050174,728.2386736170838 L374.08367915462856,727.8405991434611 M374.08367915462856,727.8405991434611 L373.85688769600426,727.28107753669 M373.85688769600426,727.28107753669 L373.7797315643535,726.5926238714012 M376.01961550786234,723.1248198816872 L379.08336113067566,723.5327840100438 M373.07315464764525,724.8246931245728 L373.1159098726501,724.392822350103 M373.1159098726501,724.392822350103 L373.24180012720427,723.9366565387556 M373.24180012720427,723.9366565387556 L373.4435089715021,723.4826993731241 M373.4435089715021,723.4826993731241 L373.7093153785165,723.0573421040145 M373.7093153785165,723.0573421040145 L374.02377031382287,722.6852994455398 M374.02377031382287,722.6852994455398 L374.3685982351202,722.3881961895089 M374.3685982351202,722.3881961895089 L374.72375827309304,722.1833006708532 M374.72375827309304,722.1833006708532 L375.06860885431945,722.0825206232926 M375.06860885431945,722.0825206232926 L375.3831082786437,722.0917107274342 M375.3831082786437,722.0917107274342 L375.6489792790802,722.210333330815 M375.6489792790802,722.210333330815 L375.85077123220645,722.4315001655198 M375.85077123220645,722.4315001655198 L375.97675707474366,722.742348236013 M375.97675707474366,722.742348236013 L376.01961550786234,723.1248198816872 M373.7797315643535,726.5926238714012 L373.85669209671624,725.8152497053734 M373.85669209671624,725.8152497053734 L374.08330261729145,724.994130258183 M374.08330261729145,724.994130258183 L374.44638829143105,724.1769936162748 M374.44638829143105,724.1769936162748 L374.9248503425139,723.4113307639559 M374.9248503425139,723.4113307639559 L375.49087776332965,722.7416446460059 M375.49087776332965,722.7416446460059 L376.1115752272864,722.2068488083813 M376.1115752272864,722.2068488083813 L376.75086770734754,721.8380312237491 M376.75086770734754,721.8380312237491 L377.37159846183675,721.6566262242517 M377.37159846183675,721.6566262242517 L377.937693227621,721.6731665082332 M377.937693227621,721.6731665082332 L378.41625225060795,721.8866949126314 M378.41625225060795,721.8866949126314 L378.7794666854233,722.2847967983575 M378.7794666854233,722.2847967983575 L379.00622788872886,722.8443339037981 M379.00622788872886,722.8443339037981 L379.08336113067566,723.5327840100438" stroke="black"  stroke-width="4"  fill="red"/></svg>