<svg viewBox="0 0 800 800" xmlns="http://www.w3.org/2000/svg"><path d="M522.4480697609729,-41.84444854072564 L522.3902599079976,559.1334258527345 M522.4480697609729,-41.84444854072564 L155.02218078505945,170.06498785125027 M155.1378776104471,771.1431309988516 L155.02218078505945,170.06498785125027 M522.3902599079976,559.1334258527345 L155.1378776104471,771.1431309988516 M644.9165543385114,64.14565126736761 L644.9233600337441,28.776327590904373 M644.9233600337441,28.776327590904373 L522.4480697609729,-41.84444854072564 M522.3902599079976,559.1334258527345 L644.8077146298841,629.7876248902455 M644.8077146298841,629.7876248902455 L644.8145142775421,594.4497305711261 M644.8145142775421,594.4497305711261 L552.9963227922838,541.4590821924097 M553.0600872012161,11.177120987960109 L552.9963227922838,541.4590821924097 M644.9165543385114,64.14565126736761 L553.0600872012161,11.177120987960109 M155.02218078505945,170.06498785125027 L277.4974710558118,240.73288245568514 M277.5008761739167,276.10811216198067 L277.4974710558118,240.73288245568514 M185.64440818692702,223.10424155221295 L277.5008761739167,276.10811216198067 M185.73373790513554,753.4746751889008 L185.64440818692702,223.10424155221295 M185.73373790513554,753.4746751889008 L277.55193023902723,806.5006639182475 M277.55533233031866,841.8444485407256 L277.55193023902723,806.5006639182475 M277.55533233031866,841.8444485407256 L155.1378776104471,771.1431309988516 M644.9710104928946,205.4382488798302 L644.9778192149406,170.06498785125027 M644.9710104928946,205.4382488798302 L644.9165543385114,64.14565126736761 M644.9778192149406,170.06498785125027 L644.9233600337441,28.776327590904373 M185.64440818692702,223.10424155221295 L553.0600872012161,11.177120987960109 M522.4991238260834,276.10811216198067 L644.9710104928946,205.4382488798302 M277.5008761739167,276.10811216198067 L522.4991238260834,276.10811216198067 M522.4991238260834,276.10811216198067 L522.5025289441884,240.73288245568514 M277.4974710558118,240.73288245568514 L522.5025289441884,240.73288245568514 M277.55533233031866,841.8444485407256 L522.4446676696815,841.8444485407256 M522.4446676696815,841.8444485407256 L644.8621223895531,771.1431309988516 M644.8621223895531,771.1431309988516 L644.8077146298841,629.7876248902455 M522.5025289441884,240.73288245568514 L644.9778192149406,170.06498785125027 M185.73373790513554,753.4746751889008 L552.9963227922838,541.4590821924097 M644.8621223895531,771.1431309988516 L644.8689250599903,735.8013098107658 M644.8689250599903,735.8013098107658 L644.8145142775421,594.4497305711261 M522.4480697609729,806.5006639182475 L644.8689250599903,735.8013098107658 M277.55193023902723,806.5006639182475 L522.4480697609729,806.5006639182475 M522.4446676696815,841.8444485407256 L522.4480697609729,806.5006639182475" stroke="black"  stroke-width="4"  fill="red"/></svg>